<svg width="32" height="31" viewBox="0 0 32 31" fill="none" xmlns="http://www.w3.org/2000/svg">
<path d="M17.6131 2.65972C18.3566 3.188 18.8671 3.89913 19.1552 4.76272C19.2525 6.67616 19.0538 8.546 18.8144 10.4417C18.7814 10.7121 18.7486 10.9825 18.7159 11.2529C18.6367 11.9051 18.5557 12.557 18.4736 13.2088C18.8251 13.2029 19.1756 13.1927 19.5268 13.1801C19.6754 13.1782 19.6754 13.1782 19.8269 13.1764C20.3429 13.1543 20.6089 13.1112 21.0081 12.7741C21.1767 12.544 21.3384 12.3088 21.4944 12.07C22.1855 11.0788 23.4412 10.4441 24.6078 10.2118C26.3483 10.0311 28.0258 10.131 29.481 11.1909C30.7214 12.2486 31.8446 13.5611 31.9929 15.2554C32.0584 17.5369 31.6873 19.1545 30.0945 20.8715C29.5194 21.4242 28.888 21.7661 28.152 22.0635C28.0302 22.1132 27.9084 22.1629 27.783 22.2141C26.1775 22.65 24.2759 22.4756 22.8357 21.6549C21.6301 20.8616 21.6301 20.8616 21.3481 20.3309C21.1875 20.0373 21.0428 19.8338 20.791 19.6115C20.2773 19.4735 19.7784 19.478 19.2489 19.4837C19.1089 19.4815 18.969 19.4793 18.8248 19.4771C18.4803 19.4723 18.1365 19.4718 17.792 19.4752C17.7824 19.5695 17.7727 19.6637 17.7628 19.7608C17.6713 20.6546 17.5791 21.5483 17.4862 22.4419C17.4385 22.9012 17.3911 23.3605 17.3441 23.8198C17.2899 24.3495 17.2349 24.879 17.1797 25.4085C17.155 25.6528 17.155 25.6528 17.1297 25.9019C16.9276 27.8218 16.7152 29.133 15.2239 30.4489C14.2757 31.0829 13.03 31.0593 11.9305 30.9183C10.7533 30.5584 9.94458 29.8003 9.3405 28.7387C8.74773 27.1872 9.23945 25.1639 9.41555 23.5546C9.43665 23.359 9.45771 23.1634 9.47875 22.9678C9.53524 22.4435 9.59227 21.9192 9.64945 21.3949C9.69736 20.9551 9.74503 20.5154 9.7927 20.0756C9.90518 19.038 10.0181 18.0004 10.1313 16.9629C10.2478 15.8958 10.3634 14.8285 10.4786 13.7613C10.578 12.8407 10.678 11.9203 10.7783 10.9998C10.8381 10.4519 10.8976 9.9039 10.9566 9.35587C11.0121 8.84121 11.0682 8.32663 11.1248 7.8121C11.1454 7.62416 11.1657 7.4362 11.1858 7.2482C11.5415 3.92242 11.5415 3.92242 12.7686 2.87896C14.2494 1.83854 16.051 1.71418 17.6131 2.65972Z" fill="#555BCA"/>
<path d="M4.53905 0.209657C4.72793 0.211253 4.72793 0.211253 4.92061 0.212881C5.33954 0.216596 5.75845 0.221308 6.17737 0.226027C6.47356 0.228865 6.76975 0.231646 7.06594 0.234373C7.85842 0.241875 8.65089 0.250285 9.44335 0.258975C9.93293 0.264316 10.4225 0.269484 10.9121 0.274594C12.5276 0.291483 14.1432 0.309093 15.7587 0.32748C16.9496 0.341021 18.1406 0.353168 19.3315 0.363512C20.2109 0.371197 21.0902 0.380651 21.9695 0.391122C22.3107 0.394905 22.6519 0.398059 22.993 0.400553C23.4556 0.404082 23.9181 0.409966 24.3806 0.41651C24.5749 0.417151 24.5749 0.417151 24.7731 0.417804C26.0542 0.44125 27.1984 0.764104 28.1163 1.67225C28.9654 2.87593 29.1239 4.14762 28.8726 5.57923C28.5663 6.49699 27.8712 7.2576 26.9969 7.69318C26.4234 7.94295 25.9548 8.04914 25.3248 8.04778C25.17 8.04777 25.0152 8.04776 24.8557 8.04775C24.605 8.04673 24.605 8.04673 24.3494 8.04568C24.1783 8.04549 24.0072 8.04531 23.8309 8.04511C23.3765 8.0445 22.9221 8.04331 22.4678 8.04184C22.0039 8.04048 21.54 8.03988 21.0762 8.03921C20.1664 8.03775 19.2566 8.03553 18.3468 8.03274C18.3333 8.156 18.3198 8.27927 18.3059 8.40627C18.2524 8.89491 18.1989 9.38356 18.1454 9.8722C18.1206 10.0991 18.0957 10.326 18.0709 10.5529C17.9205 11.9263 17.7699 13.2996 17.6187 14.6729C17.5766 15.0563 17.5344 15.4397 17.4922 15.8231C17.464 16.0793 17.4358 16.3354 17.4076 16.5916C17.248 18.0425 17.0895 19.4936 16.9346 20.9451C16.8629 21.6174 16.79 22.2897 16.717 22.962C16.6844 23.2652 16.6522 23.5685 16.6205 23.8718C16.577 24.2878 16.5319 24.7035 16.4864 25.1193C16.4746 25.2366 16.4627 25.3538 16.4506 25.4746C16.3014 26.8044 15.9966 27.9518 15.0055 28.9197C14.1086 29.6014 13.0916 29.8881 11.9695 29.7644C11.8689 29.7535 11.7684 29.7425 11.6647 29.7313C10.6358 29.5641 9.76008 29.0562 9.12856 28.2405C7.84128 26.4021 8.72457 23.2636 8.96092 21.2216C9.01502 20.752 9.06776 20.2822 9.12065 19.8125C9.22062 18.9264 9.32178 18.0405 9.42339 17.1546C9.53918 16.1446 9.65361 15.1344 9.76794 14.1242C10.0028 12.0494 10.2393 9.97475 10.477 7.90023C10.3638 7.9004 10.2507 7.90058 10.1341 7.90076C9.70423 7.90133 9.27435 7.90174 8.84448 7.90205C8.57099 7.90229 8.2975 7.90272 8.024 7.90314C6.83706 7.90386 5.65099 7.89187 4.46432 7.8671C4.31563 7.86419 4.16695 7.86128 4.01376 7.85828C2.85709 7.82899 1.81473 7.52394 0.978856 6.70764C0.197429 5.69087 -0.0998667 4.66158 0.0290464 3.39488C0.286309 2.25422 0.825437 1.4439 1.79298 0.74468C2.71525 0.230005 3.50376 0.196406 4.53905 0.209657Z" fill="#555BCA"/>
</svg>
