<svg width="307" height="70" viewBox="0 0 307 70" fill="none" xmlns="http://www.w3.org/2000/svg">
<path d="M39.6054 6.27292C41.2771 7.46083 42.4252 9.0599 43.0729 11.0018C43.2917 15.3044 42.8449 19.509 42.3066 23.7716C42.2324 24.3797 42.1586 24.9877 42.0851 25.5958C41.9071 27.0623 41.7249 28.5282 41.5403 29.9938C42.3307 29.9806 43.1188 29.9577 43.9086 29.9292C44.2427 29.9251 44.2427 29.9251 44.5834 29.9209C45.7437 29.8714 46.3418 29.7744 47.2394 29.0164C47.6185 28.499 47.9821 27.9701 48.3328 27.4332C49.8869 25.2042 52.7105 23.7772 55.3338 23.2547C59.2476 22.8485 63.0196 23.0731 66.2919 25.4564C69.0811 27.8348 71.6067 30.7861 71.9402 34.5959C72.0874 39.726 71.253 43.3636 67.6712 47.2245C66.3781 48.4673 64.9583 49.236 63.3033 49.9048C63.0295 50.0166 62.7557 50.1283 62.4735 50.2435C58.8634 51.2235 54.5874 50.8314 51.349 48.9859C48.6381 47.2022 48.6381 47.2022 48.004 46.0088C47.6429 45.3487 47.3175 44.8909 46.7512 44.391C45.5961 44.0809 44.4742 44.0909 43.2836 44.1038C42.9689 44.0989 42.6542 44.094 42.3299 44.0889C41.5554 44.0781 40.7822 44.077 40.0077 44.0847C39.986 44.2966 39.9643 44.5086 39.942 44.727C39.7361 46.7367 39.5289 48.7462 39.3201 50.7557C39.2128 51.7884 39.106 52.8212 39.0006 53.8541C38.8787 55.0451 38.7549 56.2358 38.6307 57.4265C38.5751 57.9757 38.5751 57.9757 38.5184 58.536C38.064 62.853 37.5864 65.8014 34.2329 68.7605C32.1008 70.1861 29.2996 70.1329 26.8273 69.8159C24.1802 69.0065 22.3617 67.3019 21.0034 64.9147C19.6704 61.426 20.7761 56.8764 21.1721 53.2578C21.2196 52.818 21.2669 52.3781 21.3142 51.9383C21.4413 50.7592 21.5695 49.5803 21.6981 48.4014C21.8058 47.4125 21.913 46.4236 22.0202 45.4346C22.2731 43.1014 22.5271 40.7684 22.7816 38.4354C23.0435 36.0358 23.3034 33.6361 23.5625 31.2362C23.7861 29.1662 24.0108 27.0964 24.2365 25.0267C24.3709 23.7945 24.5048 22.5624 24.6375 21.3301C24.7621 20.1728 24.8883 19.0157 25.0156 17.8587C25.0619 17.4361 25.1076 17.0134 25.1527 16.5907C25.9526 9.11226 25.9526 9.11226 28.7119 6.7659C32.0416 4.42639 36.0929 4.14675 39.6054 6.27292Z" fill="#555BCA"/>
<path d="M10.2066 0.764084C10.6313 0.767672 10.6313 0.767672 11.0646 0.771334C12.0066 0.779688 12.9486 0.790282 13.8906 0.800893C14.5566 0.807274 15.2226 0.813528 15.8887 0.819661C17.6707 0.836529 19.4526 0.85544 21.2346 0.874982C22.3354 0.886992 23.4363 0.898612 24.5372 0.910102C28.1699 0.94808 31.8027 0.987679 35.4354 1.02902C38.1134 1.05947 40.7914 1.08679 43.4694 1.11005C45.4468 1.12733 47.424 1.14859 49.4013 1.17213C50.1684 1.18064 50.9356 1.18773 51.7027 1.19334C52.7429 1.20127 53.7829 1.2145 54.823 1.22922C55.2598 1.23066 55.2598 1.23066 55.7055 1.23213C58.5863 1.28485 61.1589 2.01083 63.223 4.05291C65.1323 6.75953 65.4887 9.6191 64.9238 12.8383C64.2349 14.902 62.6719 16.6123 60.7059 17.5917C59.4164 18.1534 58.3625 18.3922 56.946 18.3891C56.5979 18.3891 56.2498 18.3891 55.8911 18.389C55.3276 18.3867 55.3276 18.3867 54.7526 18.3844C54.3679 18.384 53.9832 18.3835 53.5868 18.3831C52.5651 18.3817 51.5433 18.379 50.5216 18.3757C49.4785 18.3727 48.4355 18.3713 47.3925 18.3698C45.3467 18.3665 43.3009 18.3615 41.2551 18.3553C41.2248 18.6325 41.1944 18.9096 41.1632 19.1952C41.0429 20.294 40.9226 21.3928 40.8023 22.4915C40.7464 23.0018 40.6906 23.512 40.6347 24.0222C40.2966 27.1104 39.9579 30.1986 39.618 33.2866C39.5231 34.1487 39.4282 35.0108 39.3334 35.8729C39.27 36.4489 39.2066 37.0249 39.1432 37.6009C38.7842 40.8636 38.428 44.1265 38.0796 47.3902C37.9183 48.9022 37.7544 50.4139 37.5904 51.9255C37.517 52.6074 37.4446 53.2893 37.3733 53.9714C37.2754 54.9067 37.174 55.8417 37.0718 56.7766C37.0452 57.0402 37.0186 57.3039 36.9912 57.5755C36.6558 60.5657 35.9704 63.1457 33.7418 65.3222C31.7251 66.8551 29.4382 67.4998 26.915 67.2217C26.6888 67.1971 26.4627 67.1725 26.2297 67.1472C23.9159 66.7713 21.9468 65.6292 20.5267 63.7951C17.6321 59.6612 19.6183 52.6038 20.1498 48.0121C20.2714 46.9561 20.39 45.8998 20.5089 44.8435C20.7337 42.851 20.9612 40.8589 21.1897 38.8669C21.4501 36.5957 21.7074 34.3242 21.9644 32.0527C22.4925 27.3872 23.0244 22.7221 23.5588 18.0573C23.3043 18.0577 23.0499 18.0581 22.7878 18.0585C21.8212 18.0598 20.8546 18.0607 19.8879 18.0614C19.2729 18.062 18.658 18.0629 18.043 18.0639C15.374 18.0655 12.707 18.0385 10.0386 17.9828C9.70425 17.9763 9.36991 17.9697 9.02544 17.963C6.42453 17.8971 4.08065 17.2112 2.20108 15.3756C0.443944 13.0893 -0.224563 10.7748 0.0653146 7.92647C0.643801 5.36155 1.8561 3.53943 4.03174 1.96715C6.10559 0.809839 7.87864 0.734287 10.2066 0.764084Z" fill="#555BCA"/>
<path d="M294.508 50.0672C291.978 50.0672 289.798 49.5838 287.967 48.6169C286.146 47.6398 284.742 46.241 283.755 44.4205C282.778 42.5898 282.289 40.399 282.289 37.8482C282.289 35.4003 282.783 33.261 283.77 31.4302C284.758 29.5994 286.152 28.1749 287.951 27.1566C289.751 26.1384 291.875 25.6293 294.323 25.6293C296.113 25.6293 297.733 25.907 299.183 26.4624C300.633 27.0178 301.873 27.8252 302.901 28.8846C303.93 29.9337 304.722 31.2091 305.277 32.7107C305.832 34.2124 306.11 35.9043 306.11 37.7865V39.7613H284.943V35.0712H298.273C298.262 34.3924 298.088 33.7958 297.748 33.2815C297.419 32.757 296.972 32.3507 296.406 32.0627C295.851 31.7645 295.218 31.6153 294.508 31.6153C293.819 31.6153 293.187 31.7645 292.611 32.0627C292.035 32.3507 291.572 32.7518 291.222 33.2661C290.883 33.7804 290.703 34.3821 290.682 35.0712V40.1316C290.682 40.8927 290.842 41.5715 291.16 42.1681C291.479 42.7646 291.937 43.2326 292.534 43.572C293.13 43.9114 293.85 44.0811 294.693 44.0811C295.28 44.0811 295.815 43.9988 296.298 43.8343C296.792 43.6697 297.213 43.4331 297.563 43.1246C297.913 42.8057 298.17 42.4252 298.334 41.9829H306.11C305.843 43.6286 305.21 45.0582 304.213 46.2719C303.215 47.4753 301.893 48.4112 300.248 49.0798C298.612 49.738 296.699 50.0672 294.508 50.0672Z" fill="#555BCA"/>
<path d="M268.223 50.0672C265.652 50.0672 263.451 49.5581 261.62 48.5398C259.789 47.5113 258.385 46.0816 257.408 44.2508C256.431 42.4098 255.942 40.2756 255.942 37.8482C255.942 35.4209 256.431 33.2918 257.408 31.461C258.385 29.62 259.789 28.1903 261.62 27.1721C263.451 26.1435 265.652 25.6293 268.223 25.6293C270.547 25.6293 272.558 26.051 274.255 26.8944C275.963 27.7275 277.284 28.9103 278.22 30.4428C279.156 31.965 279.629 33.7547 279.64 35.8117H271.741C271.627 34.5672 271.267 33.621 270.661 32.973C270.064 32.3147 269.293 31.9856 268.346 31.9856C267.606 31.9856 266.958 32.2016 266.402 32.6336C265.847 33.0553 265.415 33.6981 265.107 34.5621C264.798 35.4157 264.644 36.4906 264.644 37.7865C264.644 39.0825 264.798 40.1624 265.107 41.0264C265.415 41.8801 265.847 42.5229 266.402 42.9549C266.958 43.3766 267.606 43.5874 268.346 43.5874C268.974 43.5874 269.529 43.4434 270.013 43.1554C270.496 42.8572 270.887 42.4252 271.185 41.8595C271.494 41.2835 271.679 40.5841 271.741 39.7613H279.64C279.609 41.8492 279.131 43.6697 278.205 45.2228C277.279 46.7656 275.968 47.9587 274.271 48.8021C272.584 49.6455 270.568 50.0672 268.223 50.0672Z" fill="#555BCA"/>
<path d="M239.326 49.6352V25.9378H247.596V30.4428H247.843C248.275 28.7766 248.959 27.5578 249.895 26.7864C250.841 26.015 251.946 25.6293 253.212 25.6293C253.582 25.6293 253.947 25.6601 254.307 25.7218C254.677 25.7733 255.032 25.8504 255.371 25.9533V33.2198C254.95 33.0758 254.43 32.9678 253.813 32.8958C253.196 32.8238 252.666 32.7878 252.224 32.7878C251.391 32.7878 250.64 32.9781 249.972 33.3587C249.313 33.729 248.794 34.2535 248.413 34.9323C248.033 35.6009 247.843 36.3877 247.843 37.2928V49.6352H239.326Z" fill="#555BCA"/>
<path d="M223.59 50.0672C221.019 50.0672 218.817 49.5581 216.987 48.5398C215.156 47.5113 213.752 46.0816 212.775 44.2508C211.798 42.4098 211.309 40.2756 211.309 37.8482C211.309 35.4209 211.798 33.2918 212.775 31.461C213.752 29.62 215.156 28.1903 216.987 27.1721C218.817 26.1435 221.019 25.6293 223.59 25.6293C226.161 25.6293 228.362 26.1435 230.193 27.1721C232.024 28.1903 233.428 29.62 234.405 31.461C235.382 33.2918 235.871 35.4209 235.871 37.8482C235.871 40.2756 235.382 42.4098 234.405 44.2508C233.428 46.0816 232.024 47.5113 230.193 48.5398C228.362 49.5581 226.161 50.0672 223.59 50.0672ZM223.652 43.7726C224.372 43.7726 224.994 43.5309 225.518 43.0474C226.043 42.564 226.449 41.8749 226.737 40.9801C227.025 40.0853 227.169 39.0208 227.169 37.7865C227.169 36.542 227.025 35.4775 226.737 34.5929C226.449 33.6981 226.043 33.009 225.518 32.5256C224.994 32.0422 224.372 31.8005 223.652 31.8005C222.89 31.8005 222.237 32.0422 221.692 32.5256C221.147 33.009 220.731 33.6981 220.443 34.5929C220.155 35.4775 220.011 36.542 220.011 37.7865C220.011 39.0208 220.155 40.0853 220.443 40.9801C220.731 41.8749 221.147 42.564 221.692 43.0474C222.237 43.5309 222.89 43.7726 223.652 43.7726Z" fill="#555BCA"/>
<path d="M188.418 49.6351V18.0386H210.634V24.9503H196.996V30.3809H209.277V37.2927H196.996V49.6351H188.418Z" fill="#555BCA"/>
<path d="M173.464 50.0672C170.934 50.0672 168.754 49.5838 166.923 48.6169C165.102 47.6398 163.698 46.241 162.711 44.4205C161.734 42.5898 161.245 40.399 161.245 37.8482C161.245 35.4003 161.739 33.261 162.727 31.4302C163.714 29.5994 165.108 28.1749 166.907 27.1566C168.707 26.1384 170.831 25.6293 173.279 25.6293C175.069 25.6293 176.689 25.907 178.139 26.4624C179.589 27.0178 180.829 27.8252 181.857 28.8846C182.886 29.9337 183.678 31.2091 184.233 32.7107C184.789 34.2124 185.066 35.9043 185.066 37.7865V39.7613H163.899V35.0712H177.229C177.219 34.3924 177.044 33.7958 176.704 33.2815C176.375 32.757 175.928 32.3507 175.362 32.0627C174.807 31.7645 174.174 31.6153 173.464 31.6153C172.775 31.6153 172.143 31.7645 171.567 32.0627C170.991 32.3507 170.528 32.7518 170.178 33.2661C169.839 33.7804 169.659 34.3821 169.638 35.0712V40.1316C169.638 40.8927 169.798 41.5715 170.117 42.1681C170.435 42.7646 170.893 43.2326 171.49 43.572C172.086 43.9114 172.806 44.0811 173.65 44.0811C174.236 44.0811 174.771 43.9988 175.254 43.8343C175.748 43.6697 176.169 43.4331 176.519 43.1246C176.869 42.8057 177.126 42.4252 177.291 41.9829H185.066C184.799 43.6286 184.166 45.0582 183.169 46.2719C182.171 47.4753 180.849 48.4112 179.204 49.0798C177.568 49.738 175.655 50.0672 173.464 50.0672Z" fill="#555BCA"/>
<path d="M149.262 39.2676V25.9379H157.778V49.6352H149.694V45.1303H149.447C148.933 46.6422 148.033 47.825 146.747 48.6787C145.461 49.5221 143.934 49.9438 142.165 49.9438C140.509 49.9438 139.059 49.5632 137.814 48.8021C136.58 48.041 135.618 46.9919 134.929 45.6548C134.25 44.3177 133.906 42.7852 133.895 41.0573V25.9379H142.412V39.2676C142.422 40.4402 142.72 41.3607 143.307 42.0292C143.903 42.6978 144.736 43.0321 145.806 43.0321C146.516 43.0321 147.128 42.8829 147.642 42.5846C148.166 42.2761 148.567 41.8441 148.845 41.2887C149.133 40.723 149.272 40.0493 149.262 39.2676Z" fill="#555BCA"/>
<path d="M115.058 49.6352V25.9378H123.327V30.4428H123.574C124.006 28.7766 124.69 27.5578 125.626 26.7864C126.572 26.015 127.678 25.6293 128.943 25.6293C129.313 25.6293 129.679 25.6601 130.038 25.7218C130.409 25.7733 130.764 25.8504 131.103 25.9533V33.2198C130.681 33.0758 130.162 32.9678 129.545 32.8958C128.928 32.8238 128.398 32.7878 127.956 32.7878C127.123 32.7878 126.372 32.9781 125.703 33.3587C125.045 33.729 124.526 34.2535 124.145 34.9323C123.764 35.6009 123.574 36.3877 123.574 37.2928V49.6352H115.058Z" fill="#555BCA"/>
<path d="M86.7052 24.9503V18.0386H114.167V24.9503H104.663V49.6351H96.2088V24.9503H86.7052Z" fill="#555BCA"/>
</svg>
